<?xml version="1.0" encoding="UTF-8" standalone="no"?>
<!-- Created with Inkscape (http://www.inkscape.org/) -->

<svg
   xmlns:dc="http://purl.org/dc/elements/1.1/"
   xmlns:cc="http://creativecommons.org/ns#"
   xmlns:rdf="http://www.w3.org/1999/02/22-rdf-syntax-ns#"
   xmlns:svg="http://www.w3.org/2000/svg"
   xmlns="http://www.w3.org/2000/svg"
   xmlns:sodipodi="http://sodipodi.sourceforge.net/DTD/sodipodi-0.dtd"
   xmlns:inkscape="http://www.inkscape.org/namespaces/inkscape"
   width="210mm"
   height="297mm"
   viewBox="0 0 210 297"
   version="1.1"
   id="svg8"
   inkscape:version="0.92.1 r15371"
   sodipodi:docname="logo.svg">
  <defs
     id="defs2" />
  <sodipodi:namedview
     id="base"
     pagecolor="#ffffff"
     bordercolor="#666666"
     borderopacity="1.0"
     inkscape:pageopacity="0.0"
     inkscape:pageshadow="2"
     inkscape:zoom="0.35"
     inkscape:cx="-84.285714"
     inkscape:cy="560"
     inkscape:document-units="mm"
     inkscape:current-layer="layer3"
     showgrid="false"
     inkscape:window-width="1360"
     inkscape:window-height="706"
     inkscape:window-x="-8"
     inkscape:window-y="-8"
     inkscape:window-maximized="1" />
  <metadata
     id="metadata5">
    <rdf:RDF>
      <cc:Work
         rdf:about="">
        <dc:format>image/svg+xml</dc:format>
        <dc:type
           rdf:resource="http://purl.org/dc/dcmitype/StillImage" />
        <dc:title></dc:title>
      </cc:Work>
    </rdf:RDF>
  </metadata>
  <g
     inkscape:label="Capa 1"
     inkscape:groupmode="layer"
     id="layer1"
     style="display:inline">
    <ellipse
       style="fill:#3bd636;fill-opacity:1;stroke:#000000;stroke-width:3.02699995;stroke-miterlimit:4;stroke-dasharray:none;stroke-opacity:1"
       id="path978"
       cx="104.32143"
       cy="149.96725"
       rx="103.73456"
       ry="148.71371" />
  </g>
  <g
     inkscape:groupmode="layer"
     id="layer3"
     inkscape:label="Capa 3"
     style="display:inline">
    <path
       style="fill:#000000;stroke-width:0.66112709"
       d="m 32.927715,198.74732 c -4.980608,-1.87176 -8.498552,-7.43558 -8.903901,-14.08199 -0.403902,-6.6227 0.569285,-9.09602 7.183281,-18.25605 5.236605,-7.25241 6.389636,-8.46945 9.002565,-9.50231 3.268385,-1.29196 5.403128,-0.97559 8.693482,1.28839 2.12405,1.46148 5.056706,6.02318 5.056706,7.86561 0,1.14145 -2.30066,4.42593 -3.100195,4.42593 -0.261675,0 -1.417926,-1.38767 -2.569447,-3.08371 -1.940751,-2.85848 -2.315173,-3.08372 -5.126214,-3.08372 h -3.03254 l -5.559015,7.55887 c -5.287895,7.19021 -5.559016,7.71846 -5.559016,10.83128 0,4.52773 1.212404,7.28774 3.934514,8.95683 1.986302,1.21793 2.63172,1.28716 4.584195,0.49174 1.249827,-0.50917 3.111052,-1.92699 4.136055,-3.15072 1.612145,-1.9247 2.184714,-2.1664 4.242832,-1.79103 1.308554,0.23865 2.379189,0.85145 2.379189,1.36178 0,1.41488 -4.83356,7.77204 -6.930967,9.11571 -2.805846,1.79751 -5.541915,2.13934 -8.431524,1.05339 z m 7.157566,-2.49633 c 1.038575,-0.67013 2.851094,-2.48984 4.02782,-4.04379 1.76694,-2.33337 1.962554,-2.8717 1.123349,-3.09146 -0.558884,-0.14635 -1.570925,0.44259 -2.24898,1.30875 -3.078245,3.9322 -8.007616,4.98502 -11.617052,2.48119 -2.67444,-1.85524 -3.490925,-4.25741 -3.490925,-10.27061 v -4.73973 l 5.559015,-7.55886 5.559015,-7.55886 h 4.154173 c 4.006058,0 4.220305,0.0953 6.009003,2.67421 1.561993,2.252 1.961329,2.49972 2.529381,1.56903 1.512365,-2.47786 -4.073069,-8.88837 -7.87235,-9.03525 -3.31529,-0.12817 -5.477978,1.71966 -11.249067,9.61139 -7.414876,10.13955 -8.735087,14.21965 -6.589991,20.36634 2.732018,7.82847 9.058186,11.54511 14.106609,8.28765 z m 2.535282,-14.26284 c -2.358702,-1.90036 -5.066028,-6.00063 -5.087426,-7.70495 -0.015,-1.19449 2.21558,-4.56722 3.020562,-4.56722 0.226265,0 1.412949,1.43161 2.637074,3.18137 2.18823,3.12784 2.27973,3.17528 5.437516,2.8192 3.199581,-0.36078 3.232101,-0.39013 8.523929,-7.69157 5.005752,-6.90673 5.312094,-7.5161 5.312094,-10.56678 0,-4.30324 -1.222936,-7.30229 -3.604237,-8.83881 -3.305227,-2.13267 -5.662608,-1.46874 -9.020928,2.54068 -1.788909,2.13573 -2.230242,2.3156 -4.598699,1.87418 -1.440936,-0.26856 -2.619885,-0.88927 -2.619885,-1.37937 0,-1.03345 4.018716,-6.39713 6.560213,-8.75575 2.677514,-2.48484 6.439426,-3.53124 9.140175,-2.54238 3.437887,1.25875 6.766875,4.94468 8.383352,9.28223 1.753745,4.70588 1.831323,9.02022 0.240268,13.36208 -1.476919,4.0304 -10.827671,17.09907 -13.670841,19.10646 -2.917761,2.06005 -8.01905,2.0029 -10.653167,-0.11937 z m 9.519238,-1.42249 c 2.84317,-2.00739 12.193922,-15.07606 13.670842,-19.10646 1.528252,-4.17048 1.497176,-5.61621 -0.219761,-10.22334 -2.410562,-6.46834 -7.630114,-10.57063 -11.568292,-9.09207 -2.293058,0.86092 -5.914129,4.07396 -7.95733,7.06067 l -1.374499,2.00922 h 1.266004 c 0.696302,0 2.271707,-1.09895 3.500901,-2.44212 4.144728,-4.52904 11.286431,-3.59745 13.315103,1.73687 0.462217,1.21539 0.825471,4.27366 0.825471,6.94977 v 4.77923 l -5.351535,7.38383 -5.351535,7.38382 -4.281838,0.29401 c -4.24964,0.2918 -4.296705,0.27379 -6.259008,-2.39445 -1.57292,-2.13877 -2.103347,-2.48172 -2.59429,-1.67736 -1.552297,2.54327 4.21841,8.80299 8.127535,8.81626 1.181787,0.004 3.095291,-0.66103 4.252232,-1.47788 z"
       id="path1053"
       inkscape:connector-curvature="0" />
  </g>
  <g
     inkscape:groupmode="layer"
     id="layer2"
     inkscape:label="Capa 2">
    <path
       style="display:inline;fill:#000000;stroke-width:1.800879"
       d="m 174.75101,250.51694 c 0.56133,-1.50901 1.83082,-2.74366 2.82109,-2.74366 1.03779,0 0.86547,1.16224 -0.40681,2.74366 -1.21401,1.50901 -2.4835,2.74366 -2.82109,2.74366 -0.33759,0 -0.15453,-1.23465 0.40681,-2.74366 z m -11.77044,-1.11023 c 0,-1.11363 -1.11673,-1.58273 -2.48164,-1.04244 -3.07468,1.21713 -31.16908,-7.70457 -41.48228,-13.17318 -24.011607,-12.73227 -36.585522,-37.26717 -30.5312,-59.57418 2.549319,-9.3929 11.92385,-20.32912 20.6504,-24.09049 6.89108,-2.97024 59.21508,-3.60407 64.33159,-0.77929 3.66673,2.02435 3.81838,14.20792 0.20551,16.51133 -1.69542,1.08092 -1.53552,6.5199 0.73331,24.94394 2.87493,23.34585 3.15627,49.85864 0.48591,45.79286 -0.76261,-1.16111 -1.02531,-8.69591 -0.58377,-16.74397 0.60661,-11.05674 0.42907,-12.84477 -0.72642,-7.31639 -1.2042,5.76133 -1.39886,4.20627 -0.91584,-7.31642 0.33738,-8.04806 0.0362,-12.57508 -0.66952,-10.06006 -1.01906,3.63225 -1.53944,2.31117 -2.53008,-6.42305 -0.68592,-6.0477 -0.81485,-13.86711 -0.28648,-17.37647 0.73561,-4.88596 0.56655,-5.52371 -0.72171,-2.72247 -1.06118,2.3075 -1.72838,2.6887 -1.80698,1.03245 -0.0686,-1.44418 1.5721,-4.48891 3.64587,-6.76608 6.54116,-7.18268 3.44672,-9.77031 -12.13702,-10.14916 l -13.79711,-0.33542 14.18474,-1.19875 c 10.56913,-0.89322 6.89017,-1.15738 -14.43336,-1.03641 -15.73995,0.0893 -27.70831,0.84624 -26.59638,1.68212 1.13746,0.85505 -0.17593,1.02299 -3.00285,0.38396 -3.05204,-0.68991 -4.60809,-0.44066 -3.96371,0.63492 0.58347,0.9739 -0.49737,2.28092 -2.40186,2.90446 -5.4246,1.77609 -14.054495,13.07163 -15.026503,19.66794 -1.394212,9.46149 -2.562534,28.17853 -1.596007,25.5687 0.503003,-1.35825 3.254021,1.69597 6.465195,7.17771 3.339745,5.70125 9.158065,12.07646 14.455085,15.83868 4.876,3.46319 8.63336,7.12474 8.34967,8.13676 -0.28368,1.01203 0.64547,1.38035 2.06478,0.81852 3.56815,-1.41248 20.15146,5.20656 16.90339,6.7468 -1.372,0.65061 -0.52388,0.79197 1.88472,0.31418 2.4086,-0.47782 6.2744,-0.3781 8.59066,0.2216 3.25416,0.84255 3.66933,1.48723 1.82655,2.83625 -1.69725,1.2425 -1.18318,1.47192 1.78307,0.79576 2.29236,-0.52259 6.08234,-0.0503 8.42218,1.04946 4.2813,2.01231 5.7778,5.07062 2.48118,5.07062 -0.9752,0 -1.77309,-0.91116 -1.77309,-2.02479 z m -33.68873,-12.60804 c -1.46281,-0.9752 -3.45754,-1.77307 -4.43274,-1.77307 -0.9752,0 -0.57625,0.79787 0.88654,1.77307 1.46281,0.97521 3.45754,1.77308 4.43274,1.77308 0.9752,0 0.57625,-0.79787 -0.88654,-1.77308 z m -8.86547,-4.37706 c 0,-0.39538 -1.23827,-1.20904 -2.75172,-1.80815 -1.57793,-0.62462 -2.28963,-0.31799 -1.66846,0.71884 1.04127,1.73804 4.42018,2.57073 4.42018,1.08931 z m -13.65002,-9.80342 c -4.09433,-3.76981 -9.078152,-9.73503 -11.075189,-13.25606 -1.997052,-3.52101 -3.63397,-5.67592 -3.63761,-4.78864 -0.014,3.4053 7.631036,14.13151 13.827699,19.40067 9.16378,7.79219 9.7858,6.83927 0.8851,-1.35597 z M 89.780721,182.38287 c -0.406262,-2.76651 -0.738653,-0.50301 -0.738653,5.03004 0,5.53303 0.332391,7.79654 0.738653,5.03002 0.406262,-2.76652 0.406262,-7.29355 0,-10.06006 z m 81.520939,-1.79429 c -0.44955,-1.77966 -0.84694,-0.76645 -0.88308,2.25156 -0.0361,3.01802 0.3317,4.47411 0.81739,3.23575 0.48568,-1.23837 0.51525,-3.70766 0.0657,-5.48731 z m -71.15429,-19.24038 5.20774,-5.94459 -5.76256,5.37224 c -5.371495,5.00769 -6.577552,6.51693 -5.207731,6.51693 0.305152,0 2.898294,-2.67506 5.762551,-5.94458 z m 74.4052,2.63963 c -0.54591,-0.56317 -1.97663,-8.3e-4 -3.17937,1.24888 -1.7381,1.80645 -1.53444,2.01654 0.99257,1.02392 1.74865,-0.68688 2.73271,-1.70965 2.1868,-2.2728 z M 43.066754,246.89954 c -0.615431,-1.65443 1.324254,-7.96177 4.398845,-14.30381 3.024838,-6.23944 6.481532,-15.25273 7.681545,-20.02955 2.333088,-9.2872 7.104609,-12.86231 11.240523,-8.42207 4.90072,5.26133 22.308714,38.66275 21.409675,41.07961 -1.574347,4.23228 -9.079308,3.02492 -11.618316,-1.86912 -4.385651,-8.45355 -15.505429,-8.74695 -20.498378,-0.54089 -3.975334,6.53357 -10.872339,8.76762 -12.613894,4.08583 z m 9.103589,-4.15538 c 0.157195,-2.26303 0.945257,-4.73233 1.751247,-5.48732 0.805983,-0.75499 0.928861,0.27347 0.273048,2.28548 -1.113832,3.41723 -0.986432,3.39871 1.933857,-0.28107 3.397112,-4.28059 17.097266,-7.60794 18.904544,-4.59132 0.619057,1.0333 -0.613453,1.46511 -2.920946,1.02333 -2.195544,-0.42034 -2.795066,-0.23606 -1.332264,0.40947 1.462796,0.64555 4.512606,3.32975 6.777342,5.96487 2.264743,2.63512 3.665632,3.84851 3.113093,2.69641 -0.55254,-1.15207 0.276474,-2.60184 1.842251,-3.22166 2.1609,-0.85541 2.560376,-0.35066 1.657862,2.09472 -0.894772,2.42441 -0.683584,2.70445 0.85339,1.13167 2.430719,-2.48738 -0.712222,-10.03997 -3.879972,-9.32369 -1.067985,0.24149 -2.34451,-0.70438 -2.83672,-2.10191 -0.615747,-1.74827 -0.131744,-2.08476 1.551454,-1.07858 1.345512,0.80433 1.91446,0.8503 1.264329,0.10225 -0.650137,-0.74812 -1.720159,-1.23682 -2.377834,-1.086 -1.466092,0.33622 -6.057999,-5.72025 -6.135714,-8.09266 -0.03098,-0.94678 1.176225,-0.12365 2.682756,1.8291 1.609127,2.08579 1.215342,0.31689 -0.954532,-4.28775 -2.269326,-4.8157 -4.467394,-7.34501 -5.700096,-6.55908 -1.275192,0.81299 -1.6333,0.27613 -0.982609,-1.4731 0.563099,-1.51377 0.224478,-3.91231 -0.752489,-5.33008 -1.367078,-1.98391 -1.524176,-1.78076 -0.681908,0.88185 0.875367,2.76725 0.610049,3.04498 -1.325703,1.3877 -1.331053,-1.13956 -2.945099,-1.53036 -3.586768,-0.86842 -0.641676,0.66188 -1.166677,0.31177 -1.166677,-0.77806 0,-1.08984 0.817837,-2.39993 1.817415,-2.91133 0.999579,-0.51138 0.800108,-0.71372 -0.443271,-0.44962 -1.243379,0.26409 -2.323689,2.46588 -2.400686,4.89285 -0.342445,10.79394 -0.678084,11.90514 -2.714054,8.98544 -1.575106,-2.25882 -1.719872,-2.13246 -0.819191,0.71496 1.329315,4.2025 -0.427992,10.68689 -2.532579,9.34509 -1.642834,-1.04738 -4.490642,5.95954 -3.846771,9.46487 0.217049,1.18165 -0.547697,2.74925 -1.699435,3.48353 -1.40242,0.89412 -1.620284,0.54428 -0.65961,-1.05922 0.956303,-1.59623 0.742468,-1.95314 -0.641511,-1.07078 -2.683946,1.71117 -0.895107,4.67672 2.962512,4.91131 1.915014,0.11651 1.396757,0.74528 -1.434457,1.7405 l -4.43273,1.55815 4.293805,-0.36865 c 3.064009,-0.26308 4.375664,-1.54714 4.579622,-4.48325 z m 24.929303,-3.58021 c -0.962233,-2.60686 -0.75857,-2.81693 0.992561,-1.02395 1.211765,1.24076 1.756553,2.71667 1.210643,3.27983 -0.545917,0.56316 -1.537356,-0.45198 -2.203204,-2.25588 z M 50.503282,234.4334 c 0.665848,-1.8039 1.657294,-2.81904 2.203204,-2.25589 0.545912,0.56317 0.0014,2.03907 -1.210643,3.27982 -1.75113,1.79301 -1.954794,1.58292 -0.992561,-1.02393 z m 4.318729,0.73075 c 0,-1.30138 1.612596,-2.80119 3.583546,-3.33288 2.853458,-0.76978 3.161587,-1.49123 1.512412,-3.54114 -3.203591,-3.98203 1.00276,-12.30629 5.592813,-11.06805 1.984425,0.53532 3.507691,0.0285 3.523108,-1.17205 0.01526,-1.18175 0.76506,-0.9111 1.699312,0.61331 1.802901,2.94179 0.639425,10.48756 -2.188061,14.19075 -0.96014,1.25751 -3.483157,2.28638 -5.606712,2.28638 -2.123548,0 -4.818471,0.98771 -5.988711,2.19492 -1.654887,1.70717 -2.127707,1.66911 -2.127707,-0.17124 z m 14.988137,-12.9983 c 0.815689,-3.10318 0.666046,-3.77521 -0.465624,-2.09111 -1.165063,1.73382 -2.033098,1.87161 -2.880427,0.45728 -0.667053,-1.11341 -1.878264,-2.02437 -2.691573,-2.02437 -2.343127,0 -3.919931,5.92113 -2.08177,7.81737 1.038915,1.07174 1.561201,0.78456 1.387947,-0.76313 -0.152782,-1.36483 0.52011,-2.48149 1.495305,-2.48149 0.975203,0 1.706918,1.46752 1.626036,3.26118 -0.192699,4.27318 2.080354,1.64399 3.610106,-4.17573 z m 87.292512,11.05935 c 3.36765,-1.48464 3.67792,-2.49848 2.37345,-7.75546 -0.82533,-3.32614 -2.01867,-12.63231 -2.65184,-20.68036 -0.63317,-8.04805 -2.16817,-20.15348 -3.41111,-26.90094 -1.55597,-8.44679 -1.66055,-11.9163 -0.3357,-11.13864 1.05832,0.62122 1.34035,0.46382 0.62675,-0.34979 -1.83822,-2.09581 -29.68111,-1.07664 -34.06517,1.24693 -16.37194,8.6772 -17.7661,25.95292 -3.37523,41.82391 8.10459,8.93817 18.46085,14.58576 34.52216,18.82598 8.9335,2.35848 9.05325,2.47375 3.71455,3.57521 -12.53039,2.58523 -37.69599,-11.25024 -46.49384,-25.56125 -4.18791,-6.81224 -4.92804,-9.81506 -4.57059,-18.54326 0.8349,-20.38576 5.97238,-24.35591 32.19834,-24.88229 18.67924,-0.3749 18.84166,-0.34112 20.6745,4.30122 1.01605,2.57349 1.88966,11.67539 1.94136,20.22645 0.065,10.75883 0.5049,13.85729 1.42809,10.06006 0.7906,-3.2519 1.06988,0.84636 0.68555,10.06007 -0.46755,11.20847 -0.25038,13.50554 0.77817,8.23095 1.2173,-6.24245 1.39188,-5.43697 1.18932,5.4873 -0.22707,12.24667 -0.43027,12.82282 -4.67013,13.24279 -4.2632,0.42224 -4.28456,0.37374 -0.55863,-1.26888 z m -22.63931,-8.06794 c -0.40633,-0.36673 -2.73351,-1.64678 -5.17151,-2.84455 -4.17967,-2.05345 -4.23625,-2.01535 -0.99093,0.66678 2.82453,2.33442 8.5957,4.37391 6.16244,2.17777 z m -10.4908,-5.51796 c 0,-0.38361 -2.99209,-2.91228 -6.64909,-5.61929 l -6.64909,-4.92183 6.13884,5.61929 c 6.04699,5.53521 7.15934,6.2999 7.15934,4.92183 z m 33.08994,-38.17098 c -0.49188,-1.25751 -0.89432,-0.22863 -0.89432,2.28637 0,2.51503 0.40244,3.54389 0.89432,2.28638 0.49188,-1.25752 0.49188,-3.31525 0,-4.57275 z m -1.77309,-10.97461 c -0.49188,-1.25752 -0.89432,-0.22863 -0.89432,2.28638 0,2.51502 0.40244,3.54389 0.89432,2.28638 0.49188,-1.25752 0.49188,-3.31526 0,-4.57276 z m -33.23769,-6.19235 c 2.43325,-2.19613 -3.33791,-0.15663 -6.16245,2.17778 -3.2453,2.68216 -3.18872,2.72022 0.99093,0.66678 2.438,-1.19776 4.76518,-2.47782 5.17152,-2.84456 z m 7.70778,-3.80842 c 2.69521,-0.42043 6.68466,-0.40919 8.86546,0.025 2.18078,0.43416 -0.0245,0.77815 -4.90039,0.76441 -4.876,-0.0137 -6.66029,-0.36894 -3.96507,-0.78937 z M 66.811041,134.90438 c 2.205573,-0.4375 5.397139,-0.4209 7.092366,0.0368 1.695236,0.45781 -0.109329,0.81577 -4.010127,0.79548 -3.9008,-0.0203 -5.287803,-0.39488 -3.082239,-0.83239 z m -8.44285,-3.27911 c 2.643658,-3.28604 17.925827,-3.74366 23.435604,-0.70176 3.12225,1.72377 3.52713,1.58128 2.598713,-0.91456 -1.310464,-3.52289 0.685971,-3.8561 4.014576,-0.67006 1.957358,1.87354 2.174136,1.66169 1.200569,-1.17327 -1.054285,-3.06999 -0.846594,-3.17298 1.844113,-0.91454 2.693187,2.26054 2.891422,2.15829 1.773083,-0.91456 -1.096692,-3.01335 -0.890458,-3.14401 1.598743,-1.0129 2.425834,2.07686 2.767009,2.01966 2.25695,-0.3784 -0.330496,-1.55382 1.992245,-5.08087 5.161648,-7.83791 6.80345,-5.91828 6.95717,-6.69623 1.95929,-9.91604 -3.27889,-2.1124 -3.66243,-2.07162 -2.7818,0.29574 1.44859,3.89424 -0.58193,5.3076 -3.779056,2.63044 -2.272342,-1.90279 -2.524024,-1.75444 -1.553977,0.91599 0.849619,2.3389 -0.299816,3.96394 -4.321177,6.10916 -5.007721,2.6714 -5.721023,2.67263 -8.297836,0.0144 -1.84539,-1.90371 -2.075477,-2.90825 -0.666121,-2.90825 1.184173,0 2.153042,0.8231 2.153042,1.82911 0,1.00601 0.883252,1.8291 1.96279,1.8291 1.079533,0 1.528858,-1.16652 0.998504,-2.59227 -0.530356,-1.42576 0.141524,-3.03005 1.493089,-3.56507 1.611567,-0.63795 2.11537,-0.0533 1.463723,1.69847 -0.675815,1.81678 -0.1485,2.33668 1.648502,1.62533 1.453194,-0.57526 2.539391,-2.02502 2.413778,-3.22168 -0.125605,-1.19665 0.335687,-2.17573 1.025102,-2.17573 0.689422,0 2.469512,-1.64619 3.955762,-3.65822 2.335215,-3.16131 2.947675,-3.28554 4.509055,-0.91455 1.51594,2.30201 2.06031,2.33789 3.38165,0.22294 1.66596,-2.66656 5.5175,-1.33341 5.5175,1.90981 0,1.05427 -1.39632,1.41521 -3.10291,0.80211 -2.79437,-1.00388 -2.78042,-0.85637 0.14017,1.4835 2.56007,2.05104 2.84894,3.3579 1.37169,6.20536 -4.07335,7.85161 -30.159485,21.89651 -31.71693,17.07658 -0.834225,-2.58173 -18.11166,-2.83333 -18.11166,-0.26376 0,1.00601 -1.294534,1.8291 -2.87674,1.8291 -2.356063,0 -2.477231,-0.49658 -0.669439,-2.74366 z m 48.393059,-12.88686 c 1.17701,-0.0456 1.94057,-1.07459 1.69676,-2.28636 -0.2438,-1.2118 0.4876,-2.20324 1.62533,-2.20324 1.13773,0 1.56347,-0.5211 0.94609,-1.15799 -0.61737,-0.63689 -3.88408,1.34334 -7.25936,4.40049 -3.37527,3.05714 -5.618163,6.09352 -4.984219,6.74749 0.633951,0.65398 2.206249,-0.29736 3.493999,-2.11409 1.28775,-1.81673 3.30438,-3.34057 4.4814,-3.3863 z m -53.712332,12.08832 c 0,-1.18855 -0.620725,-1.76527 -1.37939,-1.28157 -0.758665,0.4837 -3.27688,-0.59706 -5.596035,-2.40166 -2.905954,-2.26118 -3.840663,-4.29184 -3.007067,-6.53278 1.13721,-3.05714 1.445511,-3.03137 5.152763,0.4307 2.168752,2.02532 5.389908,4.47396 7.158131,5.44141 2.89185,1.58224 2.936398,1.99749 0.443271,4.13197 -2.015655,1.7257 -2.771673,1.78351 -2.771673,0.21193 z m -4.678993,-7.58484 c -2.804484,-2.89308 -3.595432,-3.1008 -3.595432,-0.94421 0,1.52066 0.670546,2.3373 1.4901,1.8148 0.819553,-0.52252 1.981976,0.37228 2.583167,1.98843 0.601183,1.61616 1.548588,2.46857 2.105332,1.89423 0.556752,-0.57433 -0.605677,-2.7133 -2.583167,-4.75325 z m 75.957235,5.2739 c -2.99572,-3.09035 -2.64377,-8.29997 0.6908,-10.22505 1.55019,-0.89492 2.68718,-2.35567 2.52667,-3.24608 -0.16052,-0.89043 0.58583,-1.78358 1.65855,-1.98478 1.21251,-0.22742 1.25864,-0.0127 0.12194,0.56778 -1.00567,0.51348 -1.37398,1.69219 -0.8185,2.61939 0.5555,0.92718 -0.10163,2.12583 -1.46029,2.66366 -3.13631,1.24153 -2.74165,7.90948 0.59716,10.08914 1.39419,0.91017 1.69711,1.66745 0.67314,1.68286 -1.02397,0.0153 -2.81922,-0.95971 -3.98947,-2.16692 z m 31.56104,-1.46327 c -1.04382,-2.01201 -1.27136,-3.67081 -0.50565,-3.68621 0.76571,-0.0153 0.19537,-0.91616 -1.26743,-2.00166 -2.19509,-1.6289 -2.07858,-1.77831 0.66698,-0.85538 3.08301,1.03635 3.13276,0.81305 0.67955,-3.04932 -2.44808,-3.85427 -2.3316,-4.41307 1.54937,-7.43295 2.30806,-1.79597 4.19646,-2.88273 4.19646,-2.41504 0,0.46769 0.48431,2.1523 1.07624,3.74359 0.60218,1.61882 0.16558,2.89326 -0.99119,2.89326 -1.13709,0 -1.57431,-0.8231 -0.9716,-1.82913 0.60271,-1.00598 0.25085,-1.82909 -0.7819,-1.82909 -2.47569,0 -2.37464,1.0195 0.71118,7.17536 2.86033,5.70599 2.12913,7.68574 -2.31899,6.27879 -2.46748,-0.78048 -2.44013,-0.60201 0.17335,1.13146 3.34428,2.2182 4.17849,5.53452 1.3922,5.53452 -0.94089,0 -2.56474,-1.6462 -3.60857,-3.6582 z m 7.64222,1.03988 c -1.16037,-1.36356 -1.55932,-3.04703 -0.88654,-3.74106 1.8299,-1.88772 1.58259,-5.35325 -0.49054,-6.8736 -1.18666,-0.87025 -1.06576,-1.35369 0.34308,-1.37182 3.21915,-0.0415 7.8296,8.13791 6.54049,11.60341 -1.33894,3.59944 -2.6894,3.6934 -5.50649,0.38307 z m 4.76942,-2.86897 c 0,-1.00602 -0.79789,-1.82912 -1.77309,-1.82912 -0.9752,0 -1.77309,0.8231 -1.77309,1.82912 0,1.00598 0.79789,1.82909 1.77309,1.82909 0.9752,0 1.77309,-0.82311 1.77309,-1.82909 z m -38.94118,0.99759 c -2.05772,-2.55769 -1.81183,-4.07681 1.70452,-10.53094 3.40612,-6.25184 3.59908,-7.34022 1.12785,-6.36196 -2.5041,0.99127 -2.68091,0.60124 -1.10474,-2.43689 1.03207,-1.98938 2.84579,-3.55206 4.03049,-3.47264 1.61207,0.10808 1.5936,0.37746 -0.0734,1.07078 -1.22507,0.5095 -1.73443,1.74922 -1.13189,2.75495 0.60253,1.0057 2.97626,-1.32812 5.27498,-5.18627 4.67765,-7.850952 5.14921,-9.758471 2.41242,-9.758471 -1.03276,0 -1.38461,0.823101 -0.7819,1.829102 0.6027,1.006011 0.25085,1.829101 -0.7819,1.829101 -1.03277,0 -1.67827,0.925983 -1.43447,2.057741 0.2438,1.131758 -0.57404,2.304667 -1.81741,2.606477 -1.24339,0.30178 -1.43789,0.12862 -0.43223,-0.38486 1.00565,-0.513481 1.43802,-1.585305 0.96081,-2.381834 -1.38112,-2.305309 6.84792,-13.696185 10.40498,-14.402857 3.95276,-0.785276 8.47393,3.36735 5.06859,4.655419 -1.219,0.461094 -2.21636,2.105189 -2.21636,3.653549 0,2.141758 0.56679,2.329934 2.36942,0.78662 3.52303,-3.016231 7.33522,10.121743 3.95022,13.613663 -1.29321,1.33409 -2.84524,1.91606 -3.44892,1.2933 -0.60371,-0.62277 -1.09764,0.16718 -1.09764,1.75542 0,1.96597 -2.37422,3.30151 -7.43809,4.18408 -6.85631,1.19496 -7.17652,1.49367 -4.09384,3.81897 2.79234,2.10632 2.8738,2.52264 0.49362,2.52264 -1.56786,0 -4.35586,2.13159 -6.19556,4.73688 -3.04026,4.30545 -3.56393,4.46466 -5.74949,1.74803 z m 3.03609,-0.8685 c -0.2438,-0.935 1.15126,-2.92545 3.10012,-4.42321 1.94886,-1.49776 2.89165,-3.39553 2.0951,-4.21725 -1.65868,-1.71107 -8.46394,6.75483 -7.16827,8.9175 1.18185,1.97267 2.51099,1.78603 1.97305,-0.27704 z m 6.70693,-13.02938 c 0.63452,-1.0591 2.07792,-1.58186 3.20755,-1.1617 3.95316,1.47037 7.73463,-2.19714 7.55317,-7.3256 -0.2756,-7.789369 -5.57737,-7.700528 -8.32556,0.13952 -1.23321,3.51814 -2.99679,6.24003 -3.91906,6.04864 -0.92228,-0.19137 -2.04255,0.68091 -2.48952,1.93842 -0.98399,2.76839 2.34965,3.07105 3.97342,0.36071 z m 2.60179,-5.78269 c 0,-0.79044 0.84499,-1.43716 1.87774,-1.43716 1.03275,0 1.41869,-0.76622 0.85762,-1.70271 -0.56106,-0.93651 -0.01,-2.30311 1.22517,-3.03691 1.23492,-0.733797 1.67495,-0.682453 0.97786,0.11412 -0.6971,0.79656 -0.56105,2.80988 0.30232,4.47405 1.20709,2.32674 0.78305,3.02576 -1.83548,3.02576 -1.87288,-10e-6 -3.40523,-0.64672 -3.40523,-1.43715 z m 15.07129,-3.26627 c 0.6027,-1.006 0.25085,-1.8291 -0.78191,-1.8291 -1.03276,0 -1.87773,0.8231 -1.87773,1.8291 0,1.00602 0.35186,1.82911 0.7819,1.82911 0.43005,0 1.27503,-0.82309 1.87774,-1.82911 z m -1.7731,-5.487295 c 0.60271,-1.005997 0.25086,-1.829103 -0.7819,-1.829103 -1.03275,0 -1.87774,0.823106 -1.87774,1.829103 0,1.006007 0.35187,1.829103 0.78191,1.829103 0.43005,0 1.27503,-0.823096 1.87773,-1.829103 z m -4.43272,-2.613002 c 0,-0.431146 -1.25383,-2.077347 -2.78629,-3.658205 -2.44074,-2.517855 -2.45372,-2.874322 -0.10464,-2.874322 1.4749,0 3.09067,-0.682726 3.59059,-1.517169 1.09933,-1.834931 -4.33649,-1.600488 -7.34363,0.316732 -1.68175,1.07222 -1.67862,2.146819 0.0143,4.943455 1.86321,3.077651 6.6296,5.083195 6.6296,2.789509 z M 63.702962,121.61381 c -1.454272,-0.94848 -2.651106,-3.19938 -2.659636,-5.00203 -0.0094,-2.00319 -1.337817,-3.28056 -3.416427,-3.28529 -4.400493,-0.01 -5.448423,-3.37184 -1.9774,-6.34353 1.852121,-1.58569 2.718692,-1.6732 2.718692,-0.27453 0,1.12918 -0.797892,2.05307 -1.773094,2.05307 -0.975194,0 -1.773086,0.87167 -1.773086,1.93705 0,1.06538 0.832844,1.40606 1.85076,0.75707 2.567654,-1.63701 7.377131,2.83879 6.264488,5.82988 -0.501375,1.34784 -0.138739,2.45061 0.805854,2.45061 0.944593,0 1.717444,-0.8231 1.717444,-1.8291 0,-1.006 0.895585,-1.8291 1.990197,-1.8291 1.414767,0 1.379432,0.75917 -0.122242,2.62572 -1.761855,2.18996 -0.988683,2.74605 4.658897,3.35073 l 6.771329,0.725 -6.205822,0.27947 c -3.413199,0.15372 -7.39568,-0.49656 -8.849954,-1.44502 z m 14.169226,-2.79226 c -1.214015,-1.509 -1.653661,-2.74364 -0.977,-2.74364 0.676669,0 2.427135,1.23464 3.889938,2.74364 1.462802,1.50901 1.902449,2.74366 0.977,2.74366 -0.925449,0 -2.675921,-1.23465 -3.889938,-2.74366 z M 39.89479,114.89106 c -1.46666,-3.9428 -0.665553,-4.51556 2.054657,-1.46904 1.209289,1.35438 1.492371,2.91283 0.629063,3.46324 -0.863301,0.5504 -2.070976,-0.34699 -2.68372,-1.9942 z m 105.35487,1.18685 c 0,-1.00601 1.54869,-1.8291 3.44154,-1.8291 1.89285,0 3.93466,0.82309 4.53738,1.8291 0.6215,1.03738 -0.86814,1.8291 -3.44155,1.8291 -2.49556,0 -4.53737,-0.8231 -4.53737,-1.8291 z M 51.687188,99.615988 c 0,-4.527027 0.398689,-6.584771 0.885983,-4.572759 0.487286,2.012024 1.791041,4.262924 2.897226,5.002031 1.476913,0.9868 1.45696,1.35124 -0.0751,1.37183 -1.147498,0.0153 -2.451252,1.46841 -2.897233,3.22892 -0.44598,1.76052 -0.810874,-0.503 -0.810874,-5.030022 z m 3.566755,-7.282629 c -2.943478,-4.862161 -2.785142,-5.616872 0.897883,-4.279941 2.532969,0.919467 2.695812,0.673736 0.886549,-1.337777 -3.10647,-3.453739 -2.7833,-6.236837 0.349005,-3.005577 1.710953,1.764996 2.150087,4.248301 1.318482,7.456027 -1.202436,4.638114 -1.32552,4.679735 -3.451919,1.167268 z M 42.55035,85.745282 c 0.08508,-2.130805 0.505227,-2.564221 1.071248,-1.105083 0.51219,1.320378 0.449201,2.897983 -0.139985,3.50578 -0.58918,0.607787 -1.008245,-0.472522 -0.931263,-2.400697 z m 15.877135,-5.261177 c -2.018692,-2.509221 -1.880951,-2.725649 1.01973,-1.602221 2.803328,1.085727 3.001924,0.85157 1.210165,-1.426846 -3.13156,-3.982109 3.379012,-14.857985 7.857514,-13.125924 2.657196,1.027672 2.803541,0.776731 0.933068,-1.599964 -1.871963,-2.378598 -0.748316,-4.253069 7.195224,-12.003063 11.199809,-10.926922 17.679451,-14.491593 26.052274,-14.332254 6.00267,0.114227 6.21272,0.357615 6.41628,7.434508 0.11576,4.024027 -0.14411,5.865916 -0.57746,4.093087 -0.43336,-1.772828 -1.52542,-2.753121 -2.42682,-2.178429 -0.90139,0.574691 -1.63892,-0.238329 -1.63892,-1.80671 0,-1.56838 -1.19682,-2.851602 -2.65963,-2.851602 -1.4628,0 -2.659629,-0.823096 -2.659629,-1.829101 0,-1.006006 -0.883257,-1.829102 -1.96279,-1.829102 -1.127611,0 -1.46497,1.338296 -0.792835,3.145175 0.643479,1.729848 0.696358,2.656617 0.117517,2.059486 -2.584118,-2.665754 -30.840728,26.384047 -32.510211,33.422805 -1.437816,6.062022 -3.159576,7.430586 -5.57347,4.430155 z m 8.215132,-12.956141 c 0,-3.583274 -0.698467,-3.356602 -2.9338,0.952099 -1.471919,2.837192 -1.35794,3.411769 0.528648,2.66494 1.322831,-0.523651 2.405152,-2.15132 2.405152,-3.617039 z m 5.197392,-6.033322 c -0.507204,-0.846602 1.839379,-4.300451 5.21463,-7.675222 3.375251,-3.374766 6.163368,-5.357154 6.195816,-4.405305 0.03242,0.951851 1.529169,-0.08633 3.326066,-2.307061 1.796892,-2.220736 3.666508,-3.625655 4.154688,-3.122044 0.488187,0.50361 1.367173,-0.373535 1.953302,-1.949209 0.901153,-2.422547 0.47286,-2.53757 -2.774009,-0.745 C 79.852051,46.843969 66.42329,63.03392 71.875659,63.03392 c 0.487601,0 0.471554,-0.692677 -0.03564,-1.539278 z M 108.01474,39.255586 c 0,-1.006006 -0.79789,-1.829102 -1.77309,-1.829102 -0.97521,0 -1.77311,0.823096 -1.77311,1.829102 0,1.006005 0.7979,1.829101 1.77311,1.829101 0.9752,0 1.77309,-0.823096 1.77309,-1.829101 z M 43.605839,80.119373 c -1.866301,-1.925258 -1.402386,-4.629554 0.577626,-3.367184 0.975195,0.621744 1.773087,0.327368 1.773087,-0.654177 0,-0.981545 -0.939155,-2.10757 -2.087016,-2.502276 -1.18667,-0.408052 -1.491762,-1.71122 -0.707195,-3.020775 0.758898,-1.266719 2.42992,-1.887437 3.713367,-1.379373 1.283454,0.508065 2.807576,-0.350561 3.38694,-1.908059 0.75149,-2.020207 0.260401,-2.5179 -1.71347,-1.736528 -9.340707,3.697595 21.302741,-30.185288 32.889388,-36.366255 4.712418,-2.513866 5.734542,-2.544962 7.966621,-0.242375 2.232071,2.302588 2.196375,2.785674 -0.278209,3.765258 -1.561344,0.618071 -4.083902,0.08071 -5.605685,-1.194173 -2.325146,-1.94788 -2.591845,-1.835459 -1.670522,0.704171 1.503021,4.143072 -0.422841,5.654273 -3.704146,2.906609 -2.261379,-1.893609 -2.526704,-1.761359 -1.598348,0.79669 0.629712,1.735156 -0.0396,4.054091 -1.541161,5.339648 -1.459861,1.249848 -2.514781,1.515801 -2.34427,0.591007 0.930243,-5.045414 -0.876058,-4.411112 -8.011953,2.813472 -4.346116,4.400132 -7.513879,8.648111 -7.039479,9.439955 0.474399,0.791846 3.721287,-1.608018 7.215305,-5.333024 4.280775,-4.563789 3.669776,-3.408643 -1.873345,3.541718 -4.524357,5.672957 -10.459443,14.527464 -13.189086,19.676683 -2.729642,5.149219 -5.500946,8.807264 -6.158449,8.128988 z m 4.123807,-7.939937 c 0,-1.006012 -0.844978,-1.829106 -1.877738,-1.829106 -1.032751,0 -1.384607,0.823094 -0.7819,1.829106 0.60271,1.006004 1.447687,1.829104 1.877738,1.829104 0.430042,0 0.7819,-0.8231 0.7819,-1.829104 z m 8.655515,-15.090099 c 0.115464,-0.754506 -0.189006,-1.371829 -0.676607,-1.371829 -0.4876,0 -0.943225,0.617323 -1.012492,1.371829 -0.06928,0.754504 -1.282894,2.039736 -2.696928,2.856069 -1.414041,0.816337 -2.071947,2.317204 -1.462022,3.335267 1.02518,1.711177 5.337329,-2.854105 5.848049,-6.191336 z M 88.510738,31.132572 c 0,-0.443633 -0.797895,-1.315306 -1.77309,-1.937051 -0.975202,-0.621747 -1.773093,-0.258776 -1.773093,0.806604 0,1.065376 0.797891,1.937051 1.773093,1.937051 0.975195,0 1.77309,-0.362972 1.77309,-0.806604 z m 15.366782,30.681945 c -0.65014,-0.67067 -1.15667,-4.168828 -1.12568,-7.773687 0.0527,-6.12427 0.22522,-6.324121 2.6296,-3.046146 1.97345,2.69046 2.09477,4.10283 0.52052,6.059601 -1.69941,2.112337 -1.23252,2.339115 2.71272,1.317645 2.72719,-0.706109 5.79245,-0.354494 7.16674,0.822089 1.80768,1.547632 2.91916,1.412286 4.4958,-0.54746 1.42961,-1.777 1.50428,-2.979624 0.23525,-3.788709 -1.02255,-0.651939 -1.85918,-2.018653 -1.85918,-3.037145 0,-1.018492 1.31398,-0.496309 2.91996,1.160407 2.71124,2.796882 2.63302,3.296553 -1.09411,6.989787 -2.80767,2.782134 -4.26255,3.290413 -4.84082,1.691194 -0.97928,-2.708228 -7.62358,-3.106764 -7.62358,-0.457277 0,2.081295 -2.37185,2.430835 -4.13722,0.609701 z m 19.504,-10.974615 c -1.8342,-1.892145 -1.39244,-11.23429 0.59103,-12.498867 1.07083,-0.682712 1.77309,1.810107 1.77309,6.29391 0,7.582049 -0.29038,8.344203 -2.36412,6.204957 z m -6.57555,-15.913827 c -1.34267,-2.145798 -2.2075,-5.136096 -1.92185,-6.645105 0.41696,-2.2028 0.0707,-2.292943 -1.75655,-0.457276 -3.24588,3.260831 -18.342977,2.933193 -21.070651,-0.457276 -1.807794,-2.247067 -1.686629,-2.743654 0.669439,-2.743654 1.582207,0 2.876742,0.823096 2.876742,1.829103 0,2.55284 15.5089,2.303862 16.33808,-0.262291 0.88845,-2.749546 7.74726,0.898599 10.0288,5.334243 2.65157,5.155001 -2.10601,8.289469 -5.16401,3.402256 z m 2.71262,-2.529623 c -0.32669,-1.760512 -0.65504,-3.455282 -0.72964,-3.766155 -0.0746,-0.310873 -0.97231,-0.03182 -1.99486,0.620117 -1.27096,0.81031 -1.20226,2.001884 0.2171,3.766155 2.71989,3.38079 3.2266,3.255474 2.5074,-0.620117 z m -18.1192,-9.041239 c 1.72516,-0.463758 4.11883,-0.433259 5.31927,0.06778 1.20044,0.501034 -0.21105,0.880471 -3.13665,0.843196 -2.9256,-0.03728 -3.907782,-0.447214 -2.18262,-0.910971 z"
       id="path79"
       inkscape:connector-curvature="0" />
  </g>
</svg>
